{
    "asset" : {
        "generator" : "Khronos glTF Blender I/O v1.8.19",
        "version" : "2.0"
    },
    "scene" : 0,
    "scenes" : [
        {
            "name" : "Scene",
            "nodes" : [
                0
            ]
        }
    ],
    "nodes" : [
        {
            "mesh" : 0,
            "name" : "head"
        }
    ],
    "materials" : [
        {
            "doubleSided" : true,
            "name" : "default_material.001",
            "pbrMetallicRoughness" : {
                "baseColorFactor" : [
                    0.7568627595901489,
                    0.7568627595901489,
                    0.7568627595901489,
                    1
                ],
                "metallicFactor" : 0,
                "roughnessFactor" : 0.5527864098548889
            }
        }
    ],
    "meshes" : [
        {
            "name" : "head.001",
            "primitives" : [
                {
                    "attributes" : {
                        "POSITION" : 0,
                        "NORMAL" : 1,
                        "TEXCOORD_0" : 2
                    },
                    "indices" : 3,
                    "material" : 0
                }
            ]
        }
    ],
    "accessors" : [
        {
            "bufferView" : 0,
            "componentType" : 5126,
            "count" : 9605,
            "max" : [
                0.004642701242119074,
                0.008440908044576645,
                0.0032740088645368814
            ],
            "min" : [
                -0.004423090256750584,
                1.9125427570543252e-05,
                -0.002217576839029789
            ],
            "type" : "VEC3"
        },
        {
            "bufferView" : 1,
            "componentType" : 5126,
            "count" : 9605,
            "type" : "VEC3"
        },
        {
            "bufferView" : 2,
            "componentType" : 5126,
            "count" : 9605,
            "type" : "VEC2"
        },
        {
            "bufferView" : 3,
            "componentType" : 5123,
            "count" : 53052,
            "type" : "SCALAR"
        }
    ],
    "bufferViews" : [
        {
            "buffer" : 0,
            "byteLength" : 115260,
            "byteOffset" : 0
        },
        {
            "buffer" : 0,
            "byteLength" : 115260,
            "byteOffset" : 115260
        },
        {
            "buffer" : 0,
            "byteLength" : 76840,
            "byteOffset" : 230520
        },
        {
            "buffer" : 0,
            "byteLength" : 106104,
            "byteOffset" : 307360
        }
    ],
    "buffers" : [
        {
            "byteLength" : 413464,
            "uri" : "data:application/octet-stream;base64,"
        }
    ]
}
