{
    "asset" : {
        "generator" : "Khronos glTF Blender I/O v1.8.19",
        "version" : "2.0"
    },
    "scene" : 0,
    "scenes" : [
        {
            "name" : "Scene",
            "nodes" : [
                0
            ]
        }
    ],
    "nodes" : [
        {
            "mesh" : 0,
            "name" : "head"
        }
    ],
    "materials" : [
        {
            "doubleSided" : true,
            "name" : "default_material.001",
            "pbrMetallicRoughness" : {
                "baseColorFactor" : [
                    0.7568627595901489,
                    0.7568627595901489,
                    0.7568627595901489,
                    1
                ],
                "metallicFactor" : 0,
                "roughnessFactor" : 0.5527864098548889
            }
        }
    ],
    "meshes" : [
        {
            "name" : "head.001",
            "primitives" : [
                {
                    "attributes" : {
                        "POSITION" : 0,
                        "NORMAL" : 1,
                        "TEXCOORD_0" : 2
                    },
                    "indices" : 3,
                    "material" : 0
                }
            ]
        }
    ],
    "accessors" : [
        {
            "bufferView" : 0,
            "componentType" : 5126,
            "count" : 12013,
            "max" : [
                0.46427011489868164,
                0.8440908193588257,
                0.32740089297294617
            ],
            "min" : [
                -0.44230905175209045,
                0.0019125427352264524,
                -0.2217576950788498
            ],
            "type" : "VEC3"
        },
        {
            "bufferView" : 1,
            "componentType" : 5126,
            "count" : 12013,
            "type" : "VEC3"
        },
        {
            "bufferView" : 2,
            "componentType" : 5126,
            "count" : 12013,
            "type" : "VEC2"
        },
        {
            "bufferView" : 3,
            "componentType" : 5123,
            "count" : 53052,
            "type" : "SCALAR"
        }
    ],
    "bufferViews" : [
        {
            "buffer" : 0,
            "byteLength" : 144156,
            "byteOffset" : 0
        },
        {
            "buffer" : 0,
            "byteLength" : 144156,
            "byteOffset" : 144156
        },
        {
            "buffer" : 0,
            "byteLength" : 96104,
            "byteOffset" : 288312
        },
        {
            "buffer" : 0,
            "byteLength" : 106104,
            "byteOffset" : 384416
        }
    ],
    "buffers" : [
        {
            "byteLength" : 490520,
            "uri" : "data:application/octet-stream;base64,"
        }
    ]
}
