{
    "asset" : {
        "generator" : "Khronos glTF Blender I/O v3.5.8",
        "version" : "2.0"
    },
    "scene" : 0,
    "scenes" : [
        {
            "name" : "Scene",
            "nodes" : [
                0
            ]
        }
    ],
    "nodes" : [
        {
            "mesh" : 0,
            "name" : "volumeMesh"
        }
    ],
    "meshes" : [
        {
            "name" : "volumeMesh",
            "primitives" : [
                {
                    "attributes" : {
                        "_DATA" : 0,
                        "POSITION" : 1
                    },
                    "mode" : 0
                }
            ]
        }
    ],
    "accessors" : [
        {
            "bufferView" : 0,
            "componentType" : 5126,
            "count" : 18791,
            "type" : "SCALAR"
        },
        {
            "bufferView" : 1,
            "componentType" : 5126,
            "count" : 18791,
            "max" : [
                1.7498929500579834,
                4.2498931884765625,
                1.6501070261001587
            ],
            "min" : [
                -1.5610517263412476,
                -0.05010705068707466,
                -1.5498930215835571
            ],
            "type" : "VEC3"
        }
    ],
    "bufferViews" : [
        {
            "buffer" : 0,
            "byteLength" : 75164,
            "byteOffset" : 0,
            "target" : 34962
        },
        {
            "buffer" : 0,
            "byteLength" : 225492,
            "byteOffset" : 75164,
            "target" : 34962
        }
    ],
    "buffers" : [
        {
            "byteLength" : 300656,
            "uri" : "data:application/octet-stream;base64,"
        }
    ]
}
