{
	"asset":{
		"generator":"Khronos glTF Blender I/O v4.0.44",
		"version":"2.0"
	},
	"extensionsUsed":[
		"KHR_materials_specular",
		"KHR_materials_ior"
	],
	"scene":0,
	"scenes":[
		{
			"name":"Scene",
			"nodes":[
				17
			]
		}
	],
	"nodes":[
		{
			"name":"Bone.003.R",
			"rotation":[
				-0.6524752378463745,
				-0.013379589654505253,
				-0.0039056148380041122,
				0.7576819062232971
			],
			"scale":[
				1,
				0.9999999403953552,
				0.9999999403953552
			],
			"translation":[
				6.79574441164732e-09,
				0.4853462278842926,
				-2.3283064365386963e-10
			]
		},
		{
			"children":[
				0
			],
			"name":"Bone.002.R",
			"rotation":[
				0.07106330245733261,
				8.468019950669259e-05,
				-0.0580175444483757,
				0.9957830905914307
			],
			"scale":[
				1.0000001192092896,
				1,
				1
			],
			"translation":[
				-2.1221921997494064e-08,
				0.41051504015922546,
				6.28642737865448e-09
			]
		},
		{
			"children":[
				1
			],
			"name":"Bone.R",
			"rotation":[
				-0.7154155373573303,
				0.06601367145776749,
				0.06827279925346375,
				0.6922149658203125
			],
			"translation":[
				-0.08922015130519867,
				-0.021452827379107475,
				0.9619008302688599
			]
		},
		{
			"name":"Bone.008.R",
			"rotation":[
				-0.3178855776786804,
				0.09766098111867905,
				-0.08634856343269348,
				0.939124584197998
			],
			"scale":[
				1,
				0.9999999403953552,
				0.9999998807907104
			],
			"translation":[
				-2.465958459652029e-08,
				0.296740859746933,
				1.862645149230957e-09
			]
		},
		{
			"children":[
				3
			],
			"name":"Bone.007.R",
			"rotation":[
				-0.02561541274189949,
				-0.000441463605966419,
				-0.86624675989151,
				0.49895909428596497
			],
			"scale":[
				1,
				0.9999999403953552,
				1
			],
			"translation":[
				1.1120391718577594e-08,
				0.2717633843421936,
				-3.3760443329811096e-09
			]
		},
		{
			"children":[
				4
			],
			"name":"Bone.006.R",
			"rotation":[
				0.026139231398701668,
				-0.0032632979564368725,
				-0.14407716691493988,
				0.9892157912254333
			],
			"scale":[
				0.9999998807907104,
				0.9999999403953552,
				1
			],
			"translation":[
				5.800948610357182e-11,
				0.24916499853134155,
				-1.5674156417233576e-10
			]
		},
		{
			"children":[
				5
			],
			"name":"Bone.005.R",
			"rotation":[
				-0.024198858067393303,
				-0.7066925168037415,
				-0.7066926956176758,
				0.024198994040489197
			],
			"scale":[
				1.0000054836273193,
				0.9999999403953552,
				1
			],
			"translation":[
				-0.08922015130519867,
				-0.021452827379107475,
				0.9619008302688599
			]
		},
		{
			"name":"Bone.003.L",
			"rotation":[
				-0.6524752378463745,
				0.013379589654505253,
				0.0039056148380041122,
				0.7576819062232971
			],
			"scale":[
				1,
				0.9999999403953552,
				0.9999999403953552
			],
			"translation":[
				-6.79574441164732e-09,
				0.4853462278842926,
				-2.3283064365386963e-10
			]
		},
		{
			"children":[
				7
			],
			"name":"Bone.002.L",
			"rotation":[
				0.07106330245733261,
				-8.468019950669259e-05,
				0.0580175444483757,
				0.9957830905914307
			],
			"scale":[
				1.0000001192092896,
				1,
				1
			],
			"translation":[
				2.1221921997494064e-08,
				0.41051504015922546,
				6.28642737865448e-09
			]
		},
		{
			"children":[
				8
			],
			"name":"Bone.L",
			"rotation":[
				-0.7154155373573303,
				-0.06601367145776749,
				-0.06827279925346375,
				0.6922149658203125
			],
			"translation":[
				0.08922015130519867,
				-0.021452827379107475,
				0.9619008302688599
			]
		},
		{
			"name":"Bone.008.L",
			"rotation":[
				-0.3178855776786804,
				-0.09766098111867905,
				0.08634856343269348,
				0.939124584197998
			],
			"scale":[
				1,
				0.9999999403953552,
				0.9999998807907104
			],
			"translation":[
				2.465958459652029e-08,
				0.296740859746933,
				1.862645149230957e-09
			]
		},
		{
			"children":[
				10
			],
			"name":"Bone.007.L",
			"rotation":[
				-0.02561541274189949,
				0.000441463605966419,
				0.86624675989151,
				0.49895909428596497
			],
			"scale":[
				1,
				0.9999999403953552,
				1
			],
			"translation":[
				-1.1120391718577594e-08,
				0.2717633843421936,
				-3.3760443329811096e-09
			]
		},
		{
			"children":[
				11
			],
			"name":"Bone.006.L",
			"rotation":[
				0.026139231398701668,
				0.0032632979564368725,
				0.14407716691493988,
				0.9892157912254333
			],
			"scale":[
				0.9999998807907104,
				0.9999999403953552,
				1
			],
			"translation":[
				-5.800948610357182e-11,
				0.24916499853134155,
				-1.5674156417233576e-10
			]
		},
		{
			"children":[
				12
			],
			"name":"Bone.005.L",
			"rotation":[
				-0.024198858067393303,
				0.7066925168037415,
				0.7066926956176758,
				0.024198994040489197
			],
			"scale":[
				1.0000054836273193,
				0.9999999403953552,
				1
			],
			"translation":[
				0.08922015130519867,
				-0.021452827379107475,
				0.9619008302688599
			]
		},
		{
			"name":"Bone.001",
			"rotation":[
				0.1612294763326645,
				-0.0014467767905443907,
				0.008015099912881851,
				0.9868833422660828
			],
			"scale":[
				1,
				1.0000001192092896,
				1
			],
			"translation":[
				-2.3504753698944114e-10,
				0.1396915316581726,
				-8.454763111842567e-09
			]
		},
		{
			"children":[
				14
			],
			"name":"Bone",
			"rotation":[
				1.0348624073230894e-06,
				0.5774856209754944,
				0.8164008855819702,
				7.320154509216081e-07
			],
			"translation":[
				-0.0033349734731018543,
				-0.014494920149445534,
				1.5167266130447388
			]
		},
		{
			"mesh":0,
			"name":"Body",
			"skin":0
		},
		{
			"children":[
				16,
				2,
				6,
				9,
				13,
				15
			],
			"name":"Armature",
			"rotation":[
				-0.7071068286895752,
				0,
				0,
				0.7071068286895752
			]
		}
	],
	"materials":[
		{
			"doubleSided":true,
			"extensions":{
				"KHR_materials_specular":{
					"specularColorFactor":[
						2.0,
						2.0,
						2.0
					]
				},
				"KHR_materials_ior":{
					"ior":1.4500000476837158
				}
			},
			"name":"Body.001",
			"pbrMetallicRoughness":{
				"baseColorFactor":[
					0,
					0.12583386898040771,
					0.2370000034570694,
					1
				],
				"roughnessFactor":0.42728716135025024
			}
		}
	],
	"meshes":[
		{
			"name":"Mesh.001",
			"primitives":[
				{
					"attributes":{
						"POSITION":0,
						"NORMAL":1,
						"TEXCOORD_0":2,
						"JOINTS_0":3,
						"WEIGHTS_0":4
					},
					"indices":5,
					"material":0
				}
			]
		}
	],
	"skins":[
		{
			"inverseBindMatrices":6,
			"joints":[
				2,
				1,
				0,
				6,
				5,
				4,
				3,
				9,
				8,
				7,
				13,
				12,
				11,
				10,
				15,
				14
			],
			"name":"Armature"
		}
	],
	"accessors":[
		{
			"bufferView":0,
			"componentType":5126,
			"count":4220,
			"max":[
				0.5724074840545654,
				1.8054436445236206,
				0.3653164803981781
			],
			"min":[
				-0.5723956823348999,
				-0.003282254794612527,
				-0.10595124959945679
			],
			"type":"VEC3"
		},
		{
			"bufferView":1,
			"componentType":5126,
			"count":4220,
			"type":"VEC3"
		},
		{
			"bufferView":2,
			"componentType":5126,
			"count":4220,
			"type":"VEC2"
		},
		{
			"bufferView":3,
			"componentType":5121,
			"count":4220,
			"type":"VEC4"
		},
		{
			"bufferView":4,
			"componentType":5126,
			"count":4220,
			"type":"VEC4"
		},
		{
			"bufferView":5,
			"componentType":5123,
			"count":4320,
			"type":"SCALAR"
		},
		{
			"bufferView":6,
			"componentType":5126,
			"count":16,
			"type":"MAT4"
		}
	],
	"bufferViews":[
		{
			"buffer":0,
			"byteLength":50640,
			"byteOffset":0,
			"target":34962
		},
		{
			"buffer":0,
			"byteLength":50640,
			"byteOffset":50640,
			"target":34962
		},
		{
			"buffer":0,
			"byteLength":33760,
			"byteOffset":101280,
			"target":34962
		},
		{
			"buffer":0,
			"byteLength":16880,
			"byteOffset":135040,
			"target":34962
		},
		{
			"buffer":0,
			"byteLength":67520,
			"byteOffset":151920,
			"target":34962
		},
		{
			"buffer":0,
			"byteLength":8640,
			"byteOffset":219440,
			"target":34963
		},
		{
			"buffer":0,
			"byteLength":1024,
			"byteOffset":228080
		}
	],
	"buffers":[
		{
			"byteLength":229104,
			"uri":"ragdollskeleton_experimenting.bin"
		}
	]
}
