{
    "asset" : {
        "generator" : "Khronos glTF Blender I/O v1.8.19",
        "version" : "2.0"
    },
    "scene" : 0,
    "scenes" : [
        {
            "name" : "Scene",
            "nodes" : [
                0
            ]
        }
    ],
    "nodes" : [
        {
            "mesh" : 0,
            "name" : "head",
            "rotation" : [
                0.7071068286895752,
                0,
                0,
                0.7071067094802856
            ],
            "scale" : [
                0.009999999776482582,
                0.009999999776482582,
                0.009999999776482582
            ]
        }
    ],
    "materials" : [
        {
            "doubleSided" : true,
            "name" : "default_material",
            "pbrMetallicRoughness" : {
                "baseColorFactor" : [
                    0.7568627595901489,
                    0.7568627595901489,
                    0.7568627595901489,
                    1
                ],
                "metallicFactor" : 0,
                "roughnessFactor" : 0.5527864098548889
            }
        }
    ],
    "meshes" : [
        {
            "name" : "head",
            "primitives" : [
                {
                    "attributes" : {
                        "POSITION" : 0,
                        "NORMAL" : 1,
                        "TANGENT" : 2,
                        "TEXCOORD_0" : 3
                    },
                    "indices" : 4,
                    "material" : 0
                }
            ]
        }
    ],
    "accessors" : [
        {
            "bufferView" : 0,
            "componentType" : 5126,
            "count" : 9657,
            "max" : [
                0.46427011489868164,
                0.327400803565979,
                -0.001912534236907959
            ],
            "min" : [
                -0.44230905175209045,
                -0.221757709980011,
                -0.8440908193588257
            ],
            "type" : "VEC3"
        },
        {
            "bufferView" : 1,
            "componentType" : 5126,
            "count" : 9657,
            "type" : "VEC3"
        },
        {
            "bufferView" : 2,
            "componentType" : 5126,
            "count" : 9657,
            "type" : "VEC4"
        },
        {
            "bufferView" : 3,
            "componentType" : 5126,
            "count" : 9657,
            "type" : "VEC2"
        },
        {
            "bufferView" : 4,
            "componentType" : 5123,
            "count" : 53052,
            "type" : "SCALAR"
        }
    ],
    "bufferViews" : [
        {
            "buffer" : 0,
            "byteLength" : 115884,
            "byteOffset" : 0
        },
        {
            "buffer" : 0,
            "byteLength" : 115884,
            "byteOffset" : 115884
        },
        {
            "buffer" : 0,
            "byteLength" : 154512,
            "byteOffset" : 231768
        },
        {
            "buffer" : 0,
            "byteLength" : 77256,
            "byteOffset" : 386280
        },
        {
            "buffer" : 0,
            "byteLength" : 106104,
            "byteOffset" : 463536
        }
    ],
    "buffers" : [
        {
            "byteLength" : 569640,
            "uri" : "data:application/octet-stream;base64,"
        }
    ]
}
